:version 1.10
:name ASF
:units
  mass 1
  length 1
  angle deg
:documentation
  ASF file generated by Kaydara
:root
  axis xyz
  order  tx ty tz rx ry rz
  position 0 0 0
  orientation 0 0 0
:bonedata
  begin
    id 1
    name RightUpLegDummy
    direction -1 2.30186e-007 8.31532e-007
    length 4.04083
    axis 0 0 0 xyz
  end
  begin
    id 2
    name RightUpLeg
    direction -0.000919234 -0.999985 0.00544864
    length 17.4221
    axis -3.80308 -0.00076134 -0.0523649 xyz
    dof rx ry rz
  end
  begin
    id 3
    name RightLeg
    direction -0.000919271 -0.999984 -0.00555045
    length 17.1239
    axis 4.00314 0.0181274 -0.183583 xyz
    dof rx ry rz
  end
  begin
    id 4
    name RightFoot
    direction -2.57843e-005 -4.04509e-007 1
    length 6.72091
    axis 8.18909e-005 -0.122003 -0.403008 xyz
    dof rx ry rz
  end
  begin
    id 5
    name RightToes
    direction 0.00116825 -0.014069 0.9999
    length 3.85082
    axis 0.000514414 0.540638 -0.356797 xyz
    dof rx ry rz
  end
  begin
    id 6
    name SpineDummy
    direction 0.0168869 0.966876 -0.254689
    length 6.99894
    axis 0 0 0 xyz
  end
  begin
    id 7
    name Spine
    direction -0.0132008 0.999903 0.00446247
    length 11.1999
    axis -0.00148109 0.00725429 0.756411 xyz
    dof rx ry rz
  end
  begin
    id 8
    name Spine1
    direction 0 0 0
    length 0
    axis -0.000934958 0.0245693 1.46543 xyz
    dof rx ry rz
  end
  begin
    id 9
    name HEadDummy
    direction -0.0255732 0.999672 0.00128215
    length 3.43865
    axis -0.000934958 0.0245693 1.46543 xyz
  end
  begin
    id 10
    name HEad
    direction -0.0472656 0.980052 0.19304
    length 5.12695
    axis -0.000934954 0.0245693 1.46543 xyz
    dof rx ry rz
  end
  begin
    id 11
    name LeftShoulder1Dummy
    direction 0.953098 0.301717 -0.023914
    length 3.68488
    axis -0.000934958 0.0245693 1.46543 xyz
  end
  begin
    id 12
    name LeftShoulder1
    direction 0.962466 0.271167 0.0112566
    length 3.13809
    axis -0.000934958 0.0245693 1.46543 xyz
    dof rx ry rz
  end
  begin
    id 13
    name LeftArm
    direction 0.999943 0.00455037 -0.00961766
    length 11.3419
    axis -23.1648 0.685459 1.22814 xyz
    dof rx ry rz
  end
  begin
    id 14
    name LeftForeArm
    direction 0.999332 0.0131969 0.0340885
    length 8.70632
    axis -9.90633 0.618216 0.0826942 xyz
    dof rx ry rz
  end
  begin
    id 15
    name LeftHand
    direction 0.994373 -0.0366703 0.0993905
    length 5.32135
    axis 0.00675269 0.680415 0.445699 xyz
    dof rx ry rz
  end
  begin
    id 16
    name RightShoulderDummy
    direction -0.967298 0.252589 -0.0230903
    length 3.68488
    axis -0.000934958 0.0245693 1.46543 xyz
  end
  begin
    id 17
    name RightShoulder
    direction -0.975062 0.221602 0.0120823
    length 3.13809
    axis 0.216257 0.0246515 1.45863 xyz
    dof rx ry rz
  end
  begin
    id 18
    name RightArm
    direction -0.99886 -0.00851186 -0.0469687
    length 10.3947
    axis -23.196 0.23503 -0.532632 xyz
    dof rx ry rz
  end
  begin
    id 19
    name RightForeArm
    direction -0.99909 0.00114866 0.0426317
    length 8.68355
    axis -9.91764 -0.134943 0.610517 xyz
    dof rx ry rz
  end
  begin
    id 20
    name RightHand
    direction -0.992888 -0.0489538 0.10852
    length 5.28593
    axis -0.00275396 -0.197403 0.246414 xyz
    dof rx ry rz
  end
  begin
    id 21
    name LeftUpLegDummy
    direction 1 -2.30186e-007 -8.31532e-007
    length 4.04083
    axis 0 0 0 xyz
  end
  begin
    id 22
    name LeftUpLeg
    direction -0.000920097 -1 2.79241e-006
    length 17.4221
    axis -3.48782 0.00143434 -0.0532288 xyz
    dof rx ry rz
  end
  begin
    id 23
    name LeftLeg
    direction -0.000920097 -1 2.7912e-006
    length 17.1239
    axis 3.68162 -0.00806512 -0.0529896 xyz
    dof rx ry rz
  end
  begin
    id 24
    name LeftFoot
    direction -2.57845e-005 -3.987e-007 1
    length 6.72091
    axis 3.02372e-005 -0.00147829 -0.214229 xyz
    dof rx ry rz
  end
  begin
    id 25
    name LeftToes
    direction 0.00813577 -0.00488255 0.999955
    length 3.85048
    axis 3.89895e-005 -0.0014783 -0.214229 xyz
    dof rx ry rz
  end
:hierarchy
  begin
    root RightUpLegDummy SpineDummy LeftUpLegDummy
    RightUpLegDummy RightUpLeg
    RightUpLeg RightLeg
    RightLeg RightFoot
    RightFoot RightToes
    SpineDummy Spine
    Spine Spine1
    Spine1 HEadDummy LeftShoulder1Dummy RightShoulderDummy
    HEadDummy HEad
    LeftShoulder1Dummy LeftShoulder1
    LeftShoulder1 LeftArm
    LeftArm LeftForeArm
    LeftForeArm LeftHand
    RightShoulderDummy RightShoulder
    RightShoulder RightArm
    RightArm RightForeArm
    RightForeArm RightHand
    LeftUpLegDummy LeftUpLeg
    LeftUpLeg LeftLeg
    LeftLeg LeftFoot
    LeftFoot LeftToes
  end

:SAMPLES-PER-SECOND 30
:FULLY-SPECIFIED
:DEGREES
18
root  -10.4835 34.665 -12.2528 -170.741 7.30701 -179.816
RightUpLeg  -6.08957 -14.3989 -2.36502
RightLeg  2.90204 -2.75708 0.0385259
RightFoot  6.18939 0.0410951 -0.129707
RightToes  -27.4851 -0.117119 -0.230814
Spine  -2.39824 0.339457 -0.302735
Spine1  -4.84873 0.767173 0.0629199
HEad  -62.9415 5.54291 6.85515
LeftShoulder1  -1.94126e-019 -3.10601e-018 -2.51263e-017
LeftArm  -10.758 26.6595 -78.6902
LeftForeArm  31.6611 -19.7968 -3.03199
LeftHand  -0.229465 -0.150146 4.91007
RightShoulder  -4.96962e-017 0 -2.36833e-017
RightArm  -26.6153 -20.0875 72.7703
RightForeArm  45.1035 24.762 2.94405
RightHand  -0.253761 -1.34985 -7.16392
LeftUpLeg  -5.78849 4.51309 3.57609
LeftLeg  1.94673 13.6706 -0.410455
LeftFoot  7.32167 -0.112783 1.92419
LeftToes  -26.3763 2.14545e-006 -7.7278e-009
19
root  -10.5013 34.6887 -12.2541 -170.784 7.73643 -179.77
RightUpLeg  -5.82946 -14.3175 -2.37506
RightLeg  2.30399 -2.42978 0.0592692
RightFoot  6.57294 0.0417159 -0.130099
RightToes  -27.447 -0.117119 -0.230814
Spine  -2.43603 0.314554 -0.314811
Spine1  -4.9171 0.716383 0.0557739
HEad  -62.4617 6.20622 6.9445
LeftShoulder1  -1.94126e-019 -3.10601e-018 -2.51263e-017
LeftArm  -10.4591 26.7893 -78.5947
LeftForeArm  31.8028 -19.7862 -3.04182
LeftHand  -0.229715 -0.199351 4.83286
RightShoulder  -4.96962e-017 0 -2.36833e-017
RightArm  -26.6227 -17.6509 69.9046
RightForeArm  44.1115 32.6803 4.72059
RightHand  -0.252356 -1.46065 -7.31073
LeftUpLeg  -5.40311 4.65469 3.5587
LeftLeg  1.40328 13.9498 -0.549755
LeftFoot  7.53139 -0.122281 2.01925
LeftToes  -26.2947 2.14545e-006 -7.7278e-009
20
root  -10.5322 34.7135 -12.2304 -170.858 8.28258 -179.739
RightUpLeg  -5.58718 -13.8819 -2.41899
RightLeg  1.68637 -2.32908 0.081819
RightFoot  7.02377 0.042008 -0.125728
RightToes  -27.5241 -0.117119 -0.230814
Spine  -2.49695 0.308754 -0.346545
Spine1  -5.01874 0.67143 0.0347871
HEad  -62.0149 6.74998 7.27458
LeftShoulder1  -1.94126e-019 -3.10601e-018 -2.51263e-017
LeftArm  -9.94993 26.8821 -78.4232
LeftForeArm  31.8663 -19.855 -3.0554
LeftHand  -0.229716 -0.26631 4.73424
RightShoulder  -4.96962e-017 0 -2.36833e-017
RightArm  -27.1296 -14.4569 66.372
RightForeArm  43.6845 41.0506 6.9456
RightHand  -0.24579 -1.76363 -7.77539
LeftUpLeg  -4.99453 5.01056 3.50197
LeftLeg  0.82474 14.1301 -0.698136
LeftFoot  7.76038 -0.132041 2.10814
LeftToes  -26.1236 2.14545e-006 -7.7278e-009
21
root  -10.5749 34.7313 -12.2173 -170.924 8.58034 -179.741
RightUpLeg  -5.33476 -13.7253 -2.50452
RightLeg  1.13357 -2.19915 0.0983884
RightFoot  7.39578 0.0423213 -0.121601
RightToes  -27.5653 -0.117119 -0.230814
Spine  -2.56074 0.280585 -0.410733
Spine1  -5.11927 0.558091 -0.0433907
HEad  -61.8655 6.81498 7.83544
LeftShoulder1  -1.94126e-019 -3.10601e-018 -2.51263e-017
LeftArm  -9.49583 26.8726 -78.1422
LeftForeArm  31.8969 -20.1964 -3.11103
LeftHand  -0.227608 -0.298424 4.71493
RightShoulder  -4.96962e-017 0 -2.36833e-017
RightArm  -29.1561 -10.8262 62.5087
RightForeArm  44.0368 49.4773 9.81788
RightHand  -0.237682 -2.17494 -8.30174
LeftUpLeg  -4.70353 5.20923 3.41222
LeftLeg  0.395893 14.213 -0.807668
LeftFoot  7.91952 -0.138347 2.16556
LeftToes  -26.0154 2.14545e-006 -7.7278e-009
22
root  -10.6238 34.7396 -12.2064 -170.995 8.53284 -179.769
RightUpLeg  -5.17361 -13.866 -2.61122
RightLeg  0.893247 -2.1206 0.103733
RightFoot  7.57433 0.0427892 -0.119635
RightToes  -27.5415 -0.117119 -0.230814
Spine  -2.6004 0.282766 -0.47757
Spine1  -5.1784 0.516285 -0.169689
HEad  -61.9495 6.46593 8.30963
LeftShoulder1  -1.94126e-019 -3.10601e-018 -2.51263e-017
LeftArm  -9.3452 26.6562 -77.8403
LeftForeArm  31.8011 -20.7759 -3.21363
LeftHand  -0.223378 -0.166439 4.72486
RightShoulder  -4.96962e-017 0 -2.36833e-017
RightArm  -32.7517 -6.82668 58.3913
RightForeArm  45.0521 57.0478 13.4239
RightHand  -0.218454 -2.75404 -9.18532
LeftUpLeg  -4.61052 5.18051 3.31915
LeftLeg  0.259356 14.184 -0.839603
LeftFoot  7.98756 -0.141008 2.18101
LeftToes  -25.9673 2.14545e-006 -7.7278e-009
